<?xml version="1.0" standalone="no"?>
<!DOCTYPE svg PUBLIC "-//W3C//DTD SVG 1.1//EN" "http://www.w3.org/Graphics/SVG/1.1/DTD/svg11.dtd" >
<svg xmlns="http://www.w3.org/2000/svg" xmlns:xlink="http://www.w3.org/1999/xlink" version="1.1">
<metadata></metadata>
<defs>
<font id="decima_nova_prolight" horiz-adv-x="1187" >
<font-face units-per-em="2048" ascent="1536" descent="-512" />
<missing-glyph horiz-adv-x="450" />
<glyph unicode="&#xfb01;" horiz-adv-x="1050" d="M41 934v90h164v164q0 121 67 193.5t191 72.5q30 0 72 -4t69 -8l27 -4l-10 -82q-78 12 -160 12q-154 0 -154 -194v-150h594v-1024h-102v934h-492v-934h-102v934h-164zM795 1233v201h112v-201h-112z" />
<glyph unicode="&#xfb02;" horiz-adv-x="1040" d="M41 934v90h164v164q0 121 67 193.5t191 72.5q74 0 182.5 -5t180.5 -10l71 -5v-1434h-102v1356q-187 12 -334 12q-154 0 -154 -194v-150h293v-90h-293v-934h-102v934h-164z" />
<glyph horiz-adv-x="0" />
<glyph horiz-adv-x="682" />
<glyph unicode=" "  horiz-adv-x="450" />
<glyph unicode="&#x09;" horiz-adv-x="450" />
<glyph unicode="&#xa0;" horiz-adv-x="450" />
<glyph unicode="!" horiz-adv-x="495" d="M184 1434h127l-16 -1047h-92zM186 0v162h125v-162h-125z" />
<glyph unicode="&#x22;" horiz-adv-x="598" d="M123 1008v426h110l-30 -426h-80zM365 1008v426h110l-31 -426h-79z" />
<glyph unicode="#" d="M39 436v99h233l54 364h-220v98h234l63 437h84l-63 -437h422l63 437h84l-63 -437h219v-98h-234l-51 -364h219v-99h-233l-64 -436h-84l64 436h-422l-63 -436h-84l63 436h-221zM358 535h420l53 364h-421z" />
<glyph unicode="$" d="M156 1067q0 165 99 254t267 102v109h107v-109q75 -3 150.5 -12t114.5 -17l38 -8l-8 -96q-186 39 -344 39q-147 0 -230.5 -62t-83.5 -196q0 -58 21.5 -103.5t47 -72.5t82.5 -53t90.5 -36.5t108.5 -31.5q81 -23 123 -36.5t108 -46.5t99 -70t59.5 -100.5t26.5 -145.5 q0 -337 -403 -365v-108h-107v106q-94 1 -180 11.5t-125 20.5l-39 11l6 96q160 -43 357 -43q205 0 291 61.5t86 203.5q0 69 -26 120t-70 82t-101.5 54t-120.5 41t-126 37t-120.5 47.5t-101.5 67.5t-70 102.5t-26 146.5z" />
<glyph unicode="%" horiz-adv-x="1718" d="M164 983v193q0 122 85.5 198t209.5 76q126 0 211.5 -76t85.5 -198v-193q0 -122 -85.5 -198t-211.5 -76q-124 0 -209.5 77t-85.5 197zM264 975q0 -87 52.5 -133.5t142.5 -46.5q87 0 140.5 46.5t53.5 131.5v211q0 88 -53 135t-141 47q-90 0 -142.5 -46.5t-52.5 -135.5v-209 zM485 0l645 1434h103l-647 -1434h-101zM963 254v192q0 122 84.5 198.5t209.5 76.5q126 0 211.5 -76.5t85.5 -198.5v-192q0 -122 -85.5 -198t-211.5 -76q-125 0 -209.5 77t-84.5 197zM1063 246q0 -87 52 -133.5t142 -46.5q88 0 141.5 46.5t53.5 131.5v211q0 88 -53.5 135 t-141.5 47q-90 0 -142 -46.5t-52 -135.5v-209z" />
<glyph unicode="&#x26;" horiz-adv-x="1146" d="M133 457q0 174 85 283.5t218 140.5l-221 438v115h741v-101h-626v-10l559 -1106q5 9 12 26t19 80.5t12 139.5v178h102v-184q0 -64 -10 -121.5t-24.5 -94.5t-29 -65t-24.5 -40l-10 -13l63 -123h-116l-25 47q-4 -3 -11.5 -7.5t-34 -16t-56.5 -20.5t-79 -16t-102 -7 q-65 0 -123 12t-118 45.5t-103 85t-70.5 137.5t-27.5 197zM248 463q0 -90 15 -156t51 -119t102.5 -80.5t163.5 -27.5q48 0 89.5 5.5t67 13t44.5 15.5t27 14l7 5l-334 655q-233 -37 -233 -325z" />
<glyph unicode="'" horiz-adv-x="346" d="M123 1008v426h110l-28 -426h-82z" />
<glyph unicode="(" horiz-adv-x="618" d="M174 -18v1110q0 147 99.5 254.5t252.5 107.5v-108q-102 0 -169.5 -75.5t-67.5 -180.5v-1110q0 -106 67.5 -184.5t169.5 -78.5v-106q-153 0 -252.5 109.5t-99.5 261.5z" />
<glyph unicode=")" horiz-adv-x="618" d="M92 -283q102 0 170 78.5t68 184.5v1110q0 105 -68 180.5t-170 75.5v108q153 0 252.5 -107.5t99.5 -254.5v-1110q0 -152 -99.5 -261.5t-252.5 -109.5v106z" />
<glyph unicode="*" horiz-adv-x="886" d="M106 1155l29 82l268 -90v287h86v-287l269 90l26 -82l-270 -88l168 -231l-70 -52l-166 232l-165 -232l-70 50l166 233z" />
<glyph unicode="+" d="M154 528v99h389v389h98v-389h391v-99h-391v-389h-98v389h-389z" />
<glyph unicode="," horiz-adv-x="452" d="M147 -137q32 0 51 33.5t19 76.5l-2 27h-55v162h129v-139q0 -60 -14.5 -105t-37.5 -67.5t-45.5 -33t-44.5 -10.5v56z" />
<glyph unicode="-" horiz-adv-x="733" d="M133 555v98h467v-98h-467z" />
<glyph unicode="." horiz-adv-x="452" d="M164 0v162h125v-162h-125z" />
<glyph unicode="/" horiz-adv-x="604" d="M41 0l412 1434h110l-411 -1434h-111z" />
<glyph unicode="0" d="M125 420q-6 297 0 594q3 193 132 317.5t337 124.5q207 0 334.5 -124t132.5 -318q6 -295 0 -594q-3 -191 -133 -317t-334 -126q-210 0 -338 125t-131 318zM240 420q3 -145 97.5 -242.5t256.5 -97.5q159 0 251 96.5t95 243.5q6 294 0 594q-3 146 -94.5 243t-251.5 97 t-255.5 -97.5t-98.5 -242.5q-6 -292 0 -594z" />
<glyph unicode="1" d="M188 0v100h408v1229l-371 -166v109l353 162h135v-1334h336v-100h-861z" />
<glyph unicode="2" d="M160 0v131l551 555q79 80 115 127.5t55.5 106t19.5 141.5q0 293 -340 293q-67 0 -151.5 -12t-135.5 -24l-51 -11l-6 98q18 6 50 14.5t127.5 22.5t185.5 14q440 0 440 -401q0 -78 -11 -133.5t-40 -105t-58 -82.5t-88 -91l-536 -532v-11h739v-100h-866z" />
<glyph unicode="3" d="M168 31l6 98q18 -5 50 -13.5t122.5 -22t171.5 -13.5q204 0 292.5 96t88.5 275q0 87 -25.5 147.5t-57 90.5t-91 45.5t-95.5 17.5t-102 2h-67v110l362 461v8h-647v101h780v-113l-376 -467q438 -9 438 -410q0 -93 -22 -168t-61 -124t-86.5 -84t-105 -53.5t-109.5 -26.5 t-106 -8q-100 0 -190 12.5t-130 25.5z" />
<glyph unicode="4" d="M104 326v125l523 983h125l-537 -1008h602v399h117v-399h147v-100h-147v-326h-117v326h-713z" />
<glyph unicode="5" d="M164 799l49 635h735v-101h-635l-41 -504q14 7 40.5 17t110 26.5t167.5 16.5q213 0 323.5 -104.5t110.5 -329.5q0 -475 -494 -475q-97 0 -186.5 10.5t-130.5 21.5l-41 11l6 100q170 -43 338 -43q117 0 193 21.5t120 69.5t61 114.5t17 167.5q0 86 -15 145t-53 103.5 t-106 65.5t-170 21q-75 0 -159 -19t-130 -37l-47 -19z" />
<glyph unicode="6" d="M133 442q-6 271 0 551q2 95 33.5 177t89.5 146t149 101t205 37q77 0 160.5 -10t128.5 -20l45 -9l-8 -98q-154 37 -326 37q-89 0 -158.5 -29t-112 -79.5t-65 -114t-24.5 -136.5l-2 -207q7 4 19.5 10.5t53 24t82.5 30.5t104 23.5t122 10.5q430 0 430 -438 q0 -220 -126.5 -346t-332.5 -126q-111 0 -199.5 36t-146 99.5t-88.5 147t-33 182.5zM248 684q0 -158 2 -242q2 -58 14.5 -110t39.5 -98.5t66 -80t97.5 -53.5t130.5 -20q174 0 259 90.5t85 278.5q0 181 -78.5 259t-249.5 78q-55 0 -113 -10.5t-101.5 -25.5t-79 -30t-54.5 -26 z" />
<glyph unicode="7" d="M190 1333v101h844v-105l-571 -1329h-117l569 1323v10h-725z" />
<glyph unicode="8" d="M106 383q0 56 13.5 105.5t35.5 84.5t48.5 64t53 47.5t48.5 31.5t35 18l14 5q-9 3 -23 10t-51 34.5t-65 62t-51 95.5t-23 132q0 164 124.5 271.5t330.5 107.5q200 0 324 -109t124 -270q0 -71 -22 -131.5t-54 -96.5t-63.5 -61t-53.5 -35l-22 -10q10 -3 27 -10.5t60 -36.5 t76 -66t60 -102t27 -141q0 -80 -25.5 -147t-70.5 -113.5t-106.5 -79t-132 -48t-148.5 -15.5q-101 0 -188.5 25t-155.5 73.5t-107 126.5t-39 178zM223 387q0 -103 54 -174t136 -102t183 -31q73 0 137 18t116.5 54t83 96.5t30.5 138.5q0 77 -32 136.5t-85.5 94.5t-117 52.5 t-132.5 17.5q-56 0 -108.5 -10.5t-101 -34t-84.5 -58t-57.5 -85.5t-21.5 -113zM254 1073q0 -135 90.5 -210t251.5 -75q153 0 244.5 76t91.5 209q0 122 -93 199.5t-243 77.5q-159 0 -250.5 -76.5t-91.5 -200.5z" />
<glyph unicode="9" d="M129 983q0 220 126.5 345.5t332.5 125.5q111 0 199.5 -36t146 -99.5t88.5 -147t33 -182.5q6 -271 0 -551q-2 -95 -33.5 -177t-89.5 -146t-149 -101t-205 -37q-77 0 -160.5 9.5t-128.5 19.5l-45 10l8 99q154 -37 326 -37q89 0 158.5 29t112 79t65 113.5t24.5 136.5l2 207 q-7 -4 -19.5 -10.5t-53 -23.5t-82.5 -30t-104 -23.5t-122 -10.5q-430 0 -430 438zM246 983q0 -181 78 -259.5t249 -78.5q55 0 113 10.5t101.5 25.5t79.5 30.5t55 26.5l18 10q0 157 -2 241q-2 58 -14.5 110t-39.5 99t-66 80.5t-97.5 53.5t-130.5 20q-174 0 -259 -90.5 t-85 -278.5z" />
<glyph unicode=":" horiz-adv-x="452" d="M164 0v162h125v-162h-125zM164 862v162h125v-162h-125z" />
<glyph unicode=";" horiz-adv-x="452" d="M156 -219l61 219h-57v162h129v-174l-78 -207h-55zM164 862v162h125v-162h-125z" />
<glyph unicode="&#x3c;" d="M160 543v108l868 436v-114l-774 -375l774 -377v-115z" />
<glyph unicode="=" d="M154 340v98h878v-98h-878zM154 758v98h878v-98h-878z" />
<glyph unicode="&#x3e;" d="M160 106v115l774 377l-774 375v114l868 -436v-108z" />
<glyph unicode="?" horiz-adv-x="1028" d="M102 1403q17 6 48.5 14.5t126.5 22.5t188 14q99 0 181 -22t145.5 -66t99 -116.5t35.5 -168.5q0 -81 -17 -142t-46 -98t-67 -63t-79.5 -43.5t-83 -34.5t-79.5 -40.5t-67 -56.5t-46 -88t-17 -130h-102q0 88 16.5 155t44.5 107.5t64 69.5t76.5 47.5t80.5 35t76 37.5t64 50 t44.5 77.5t16.5 114.5q0 144 -94 209.5t-256 65.5q-76 0 -162 -12t-134 -24l-48 -11zM311 0v162h125v-162h-125z" />
<glyph unicode="@" horiz-adv-x="1753" d="M150 207q-9 334 0 672q3 116 57 220t147 181.5t229.5 123.5t295.5 46t295.5 -46t229.5 -124t146.5 -181.5t55.5 -217.5q6 -296 0 -533q-2 -79 -25 -140.5t-60 -97.5t-80 -54.5t-89 -18.5q-45 0 -82.5 11t-58 26.5t-34.5 31t-19 26.5l-5 11q-22 -13 -59 -31.5 t-126.5 -49.5t-150.5 -31q-145 0 -224.5 83t-82.5 205q-6 193 0 386q5 126 93 211t249 85q74 0 167.5 -15.5t150.5 -31.5l57 -16v-651q0 -83 27 -123.5t98 -40.5q75 0 111.5 58.5t39.5 144.5q9 263 0 551q-3 91 -44.5 176t-117 153.5t-195.5 110t-267 41.5 q-141 0 -260.5 -41.5t-197.5 -109.5t-122 -153t-47 -175q-10 -338 0 -680q3 -90 46.5 -173.5t120.5 -150.5t196.5 -107t263.5 -40q89 0 182.5 11.5t142.5 23.5l49 12l17 -88q-207 -49 -391 -49q-162 0 -299 45.5t-229 123t-145 181t-56 219.5zM604 330q5 -93 59.5 -154 t155.5 -61q62 0 140.5 27t126.5 54l47 27v645q-13 5 -36 13t-96.5 21t-148.5 13q-117 0 -180 -62.5t-68 -156.5q-9 -181 0 -366z" />
<glyph unicode="A" horiz-adv-x="1177" d="M41 0l461 1434h174l461 -1434h-115l-141 444h-582l-141 -444h-117zM330 541h520l-254 794h-14z" />
<glyph unicode="B" horiz-adv-x="1165" d="M164 0v1434h487q189 0 287 -95t98 -268q0 -72 -21 -131.5t-50.5 -92.5t-59 -55.5t-50.5 -29.5l-21 -8q5 -1 13 -3t32 -12t45.5 -24.5t48 -43t45.5 -64t32 -90.5t13 -120q0 -195 -110 -296t-349 -101h-440zM281 100h333q98 0 163 17.5t102 56t52 91.5t15 132 q0 301 -297 301h-368v-598zM281 797h368q128 0 203.5 69t75.5 201q0 126 -65 196t-189 70h-393v-536z" />
<glyph unicode="C" horiz-adv-x="1064" d="M137 434q-3 140 -3 281.5t3 283.5q2 92 41 175t105 145t162 98.5t206 36.5q70 0 148 -9t121 -19l43 -9l-7 -102q-172 37 -305 37q-178 0 -283 -103t-108 -250q-3 -142 -3 -283t3 -282q2 -71 28 -134t74 -112t122.5 -77.5t166.5 -28.5q61 0 140 10t127 20l49 11l6 -103 q-189 -40 -322 -40q-223 0 -366 132t-148 322z" />
<glyph unicode="D" horiz-adv-x="1234" d="M164 0v1434h420q223 0 366 -124t148 -311q3 -142 3 -283.5t-3 -281.5q-5 -188 -147 -311t-367 -123h-420zM281 100h303q183 0 287.5 94.5t107.5 239.5q3 141 3 282.5t-3 282.5q-3 145 -109 239.5t-286 94.5h-303v-1233z" />
<glyph unicode="E" horiz-adv-x="1128" d="M164 0v1434h842v-101h-725v-538h657v-99h-657v-596h745v-100h-862z" />
<glyph unicode="F" horiz-adv-x="1026" d="M164 0v1434h801v-103h-686v-561h618v-100h-618v-670h-115z" />
<glyph unicode="G" horiz-adv-x="1228" d="M139 434q-5 140 -5 281.5t5 283.5q3 92 40 174.5t101 145t158 99t205 36.5q107 0 211 -11t154 -21l51 -11l-8 -100q-222 41 -408 41q-175 0 -277.5 -102.5t-105.5 -250.5q-3 -141 -3 -282.5t3 -282.5q3 -147 106.5 -249.5t278.5 -102.5q80 0 161.5 10t123.5 20l41 11v483 h-269v101h383v-660q-25 -8 -67.5 -19t-159.5 -29.5t-215 -18.5q-112 0 -206.5 36.5t-158 98.5t-100 144.5t-39.5 174.5z" />
<glyph unicode="H" horiz-adv-x="1292" d="M164 0v1434h117v-637h731v637h116v-1434h-116v696h-731v-696h-117z" />
<glyph unicode="I" horiz-adv-x="444" d="M164 0v1434h117v-1434h-117z" />
<glyph unicode="J" horiz-adv-x="563" d="M31 -6l2 92q33 -6 96 -6q45 0 76 14t48 35t26.5 58.5t11.5 69.5t2 83v1094h117v-1135q0 -87 -20.5 -150.5t-58 -99.5t-83.5 -52.5t-103 -16.5q-31 0 -59.5 3.5t-41.5 6.5z" />
<glyph unicode="K" horiz-adv-x="1062" d="M164 0v1434h117v-1434h-117zM279 752l567 682h139l-569 -680l612 -754h-149z" />
<glyph unicode="L" horiz-adv-x="968" d="M164 0v1434h117v-1334h647v-100h-764z" />
<glyph unicode="M" horiz-adv-x="1509" d="M164 0v1434h147l445 -777l440 777h150v-1434h-115v1294l-45 -108l-367 -627h-129l-366 629l-45 106v-1294h-115z" />
<glyph unicode="N" horiz-adv-x="1288" d="M164 0v1434h160l643 -1194l43 -109v1303h114v-1434h-159l-643 1194l-43 106v-1300h-115z" />
<glyph unicode="O" horiz-adv-x="1273" d="M137 434q-3 140 -3 281.5t3 283.5q5 191 143 323t357 132t357 -132t143 -323q3 -142 3 -283.5t-3 -281.5q-2 -92 -38 -174.5t-99.5 -144.5t-157.5 -98.5t-205 -36.5t-205 36.5t-157.5 98.5t-99.5 144.5t-38 174.5zM260 434q2 -71 26 -134t69 -112.5t118 -78.5t164 -29 t164 29t118 78.5t69 112.5t26 134q3 141 3 282.5t-3 282.5q-2 71 -26.5 134t-70 113t-118 79t-162.5 29t-162.5 -29t-118 -79t-70 -113t-26.5 -134q-3 -142 -3 -283t3 -282z" />
<glyph unicode="P" horiz-adv-x="1120" d="M164 0v1434h520q160 0 252.5 -87t97.5 -217q3 -76 3 -152t-3 -153q-5 -131 -97.5 -217t-252.5 -86h-403v-522h-117zM281 623h407q117 0 172 53t58 139q3 81 3 162t-3 162q-5 88 -59 141t-171 53h-407v-710z" />
<glyph unicode="Q" horiz-adv-x="1277" d="M135 434q-3 140 -3 281.5t3 283.5q5 191 143 323t357 132t357 -132t143 -323q3 -142 3 -283.5t-3 -281.5q-3 -146 -82 -254l116 -131l-84 -67q-79 87 -106 116q-130 -118 -344 -118q-111 0 -205 36.5t-157.5 98.5t-99.5 144.5t-38 174.5zM258 434q0 -99 47 -182 q14 14 36.5 30.5t65 41.5t103 41t125.5 16q95 0 170 -30t162 -95q42 76 45 178q3 141 3 282.5t-3 282.5q-2 71 -26.5 134t-70 112t-118 78t-162.5 29t-162.5 -29t-118 -78t-70 -112t-26.5 -134q-3 -141 -3 -282.5t3 -282.5zM367 174q4 -4 10.5 -10t31.5 -22t53 -28t75 -22 t98 -10q52 0 98 9.5t75.5 23t51.5 27t32 22.5l9 10q-5 5 -14 12t-37.5 26.5t-57.5 34t-71.5 26.5t-81.5 12q-44 0 -88 -11.5t-75.5 -27.5t-57 -32.5t-38.5 -27.5z" />
<glyph unicode="R" horiz-adv-x="1183" d="M164 0v1434h526q161 0 252.5 -86t97.5 -218q3 -70 3 -139t-3 -139q-5 -112 -72.5 -194t-193.5 -107l307 -551h-133l-293 545h-374v-545h-117zM281 649h421q215 0 222 193q3 74 3 148.5t-3 148.5q-3 87 -58 139.5t-172 52.5h-413v-682z" />
<glyph unicode="S" horiz-adv-x="1124" d="M92 1081q0 187 124.5 280t334.5 93q92 0 187 -10t144 -20l50 -9l-12 -100q-199 39 -369 39q-161 0 -252.5 -64t-91.5 -203q0 -71 28 -123t76 -83.5t110 -55t130.5 -41.5t136.5 -37t130 -49t110 -71.5t76 -108.5t28 -156q0 -190 -122.5 -286t-389.5 -96q-111 0 -212 10.5 t-146 21.5l-45 11l6 100q172 -43 381 -43q224 0 316.5 63t92.5 211q0 72 -28 125t-75.5 85.5t-109 56.5t-130 42.5t-136.5 38.5t-129.5 49.5t-109 70t-75.5 106.5t-28 153z" />
<glyph unicode="T" horiz-adv-x="989" d="M41 1333v101h907v-101h-395v-1333h-117v1333h-395z" />
<glyph unicode="U" horiz-adv-x="1298" d="M154 434v1000h116v-1000q0 -148 100 -251t279 -103q89 0 162.5 29t120 78.5t71.5 112.5t25 134v1000h117v-1000q0 -193 -136.5 -323.5t-359.5 -130.5q-225 0 -360 130t-135 324z" />
<glyph unicode="V" horiz-adv-x="1146" d="M41 1434h121l407 -1336h9l407 1336h121l-442 -1434h-179z" />
<glyph unicode="W" horiz-adv-x="1767" d="M82 1434h123l252 -1336h12l322 1336h186l321 -1336h13l252 1336h123l-283 -1434h-191l-325 1327h-8l-324 -1327h-190z" />
<glyph unicode="X" horiz-adv-x="1183" d="M41 0l483 741l-450 693h131l387 -609l387 609h131l-451 -693l484 -741h-131l-420 649l-420 -649h-131z" />
<glyph unicode="Y" horiz-adv-x="1136" d="M31 1434h135l397 -748h8l400 748h135l-479 -865v-569h-117v569z" />
<glyph unicode="Z" horiz-adv-x="1150" d="M102 0v117l801 1208v8h-776v101h907v-117l-807 -1208v-9h822v-100h-947z" />
<glyph unicode="[" horiz-adv-x="616" d="M174 -369v1803h350v-111h-235v-1585h235v-107h-350z" />
<glyph unicode="\" horiz-adv-x="604" d="M41 1434h111l411 -1434h-110z" />
<glyph unicode="]" horiz-adv-x="616" d="M92 -262h236v1585h-236v111h350v-1803h-350v107z" />
<glyph unicode="^" horiz-adv-x="970" d="M102 694l330 740h107l329 -740h-100l-283 647l-282 -647h-101z" />
<glyph unicode="_" horiz-adv-x="1132" d="M0 -154h1130v-82h-1130v82z" />
<glyph unicode="`" horiz-adv-x="385" d="M0 1434h164l221 -256h-119z" />
<glyph unicode="a" horiz-adv-x="976" d="M102 289q0 138 75 227.5t220 89.5h344v107q0 102 -61 171.5t-174 69.5q-70 0 -153 -10t-131 -20l-48 -9l-10 91q188 38 338 38q167 0 254.5 -89.5t87.5 -229.5v-725h-92l-11 121q-7 -6 -19.5 -15.5t-51 -33.5t-77 -43t-93 -34t-103.5 -15q-137 0 -216 86t-79 223z M207 291q0 -98 47 -159.5t149 -61.5q48 0 100.5 17t93 41.5t74.5 49t52 41.5l18 17v280h-335q-105 0 -152 -61.5t-47 -163.5z" />
<glyph unicode="b" horiz-adv-x="1019" d="M143 29v1405h103v-496q7 4 18.5 11t48.5 24t73.5 30t88.5 24t98 11q154 0 235.5 -87.5t84.5 -225.5q3 -106 3 -212.5t-3 -213.5q-3 -141 -94 -230t-267 -89q-98 0 -195.5 12t-145.5 24zM246 102q102 -32 286 -32q123 0 188 68.5t68 170.5q3 101 3 202t-3 202 q-3 105 -56 171t-163 66q-71 0 -152 -26.5t-126 -53.5l-45 -26v-742z" />
<glyph unicode="c" horiz-adv-x="817" d="M127 299q-3 106 -3 212.5t3 213.5q3 137 101.5 228t269.5 91q50 0 110.5 -6t95.5 -12l35 -6l-10 -88q-137 22 -233 22q-119 0 -190.5 -68.5t-74.5 -168.5q-3 -103 -3 -206t3 -206q3 -99 74 -167t191 -68q60 0 121 7t93 14l31 7l15 -86q-129 -32 -260 -32 q-171 0 -268.5 90.5t-100.5 228.5z" />
<glyph unicode="d" horiz-adv-x="1017" d="M127 289q-3 107 -3 214t3 214q2 68 23.5 125.5t63.5 103.5t111.5 72t159.5 26q65 0 137 -13t111 -27l39 -13v443h102v-1434h-94l-8 98q-7 -5 -20 -13t-52 -28t-77 -35.5t-89.5 -28.5t-95.5 -13q-154 0 -231 85t-80 224zM231 301q3 -104 53 -167.5t158 -63.5q46 0 97 13 t90.5 31t73 36.5t51.5 31.5l18 13v700q-12 7 -34 16.5t-96.5 26t-156.5 16.5q-122 0 -186.5 -72.5t-67.5 -174.5t-3 -204t3 -202z" />
<glyph unicode="e" horiz-adv-x="946" d="M127 299q-3 105 -3 211.5t3 214.5q3 136 100 227.5t260 91.5q162 0 259.5 -91.5t97.5 -227.5v-246h-615q0 -115 2 -170q5 -103 70.5 -171t190.5 -68q76 0 152 10t114 20l37 11l14 -84q-14 -5 -40 -13t-110 -21t-172 -13q-170 0 -263.5 90t-96.5 229zM229 569h512 q0 103 -2 146q-5 99 -72.5 169t-174.5 70q-122 0 -189 -67t-72 -172z" />
<glyph unicode="f" horiz-adv-x="661" d="M41 934v90h164v164q0 121 67 193.5t191 72.5q30 0 72 -4t69 -8l27 -4l-10 -82q-78 12 -160 12q-154 0 -154 -194v-150h293v-90h-293v-934h-102v934h-164z" />
<glyph unicode="g" horiz-adv-x="921" d="M92 -309l25 84q18 -8 49 -20.5t119.5 -33t167.5 -20.5q98 0 162.5 12.5t104.5 46t40 90.5q0 55 -15.5 78t-58.5 47l-235 129q-70 40 -70 144v74q-136 20 -210.5 97t-74.5 181v145q0 115 96.5 197t245.5 82q70 0 152 -27l61 78q43 53 123 53l96 -8l-12 -82h-72 q-46 0 -77 -34l-39 -50q52 -37 80 -94t28 -115v-145q0 -103 -80 -180.5t-213 -97.5v-60q0 -67 64 -102l201 -111q59 -33 85.5 -78.5t26.5 -120.5q0 -68 -34 -117t-94 -74.5t-128.5 -36.5t-152.5 -11q-98 0 -188.5 20t-131.5 40zM197 606q0 -88 64.5 -142t176.5 -54t176 54 t64 142v129q0 88 -64.5 143.5t-177.5 55.5q-114 0 -176.5 -55t-62.5 -144v-129z" />
<glyph unicode="h" horiz-adv-x="1024" d="M143 0v1434h103v-508q20 13 54 32t122.5 50.5t157.5 31.5q156 0 233.5 -87t77.5 -228v-725h-103v713q0 104 -51.5 170.5t-161.5 66.5q-45 0 -95.5 -12.5t-90 -30t-73 -35.5t-52.5 -30l-18 -13v-829h-103z" />
<glyph unicode="i" horiz-adv-x="399" d="M143 1233v201h113v-201h-113zM147 0v1024h103v-1024h-103z" />
<glyph unicode="j" horiz-adv-x="430" d="M-84 -377l8 88q50 -10 99 -10q153 0 153 197v1126h103v-1139q0 -123 -67.5 -198.5t-191.5 -75.5q-23 0 -49 3t-41 6zM172 1233v201h115v-201h-115z" />
<glyph unicode="k" horiz-adv-x="856" d="M143 0v1434h103v-1434h-103zM248 541l428 483h129l-436 -479l467 -545h-131z" />
<glyph unicode="l" horiz-adv-x="389" d="M143 0v1434h103v-1434h-103z" />
<glyph unicode="m" horiz-adv-x="1478" d="M143 0v1024h95l8 -98q6 5 17 12.5t43.5 27t64.5 34.5t75 27.5t80 12.5q49 0 91 -13t67.5 -31t44 -36.5t25.5 -31.5l8 -13q5 5 15 13.5t41.5 30t64 38t80 30t92.5 13.5q137 0 214 -82.5t77 -232.5v-725h-103v709q0 111 -50.5 176t-145.5 65q-58 0 -120 -29t-95 -58 l-33 -29v-834h-103v743q0 89 -44 148t-132 59q-36 0 -77.5 -13t-75 -31t-62 -36.5t-43.5 -31.5l-16 -13v-825h-103z" />
<glyph unicode="n" horiz-adv-x="1064" d="M143 0v1024h95l8 -98q20 13 54 32t122.5 50.5t157.5 31.5q156 0 233.5 -87t77.5 -228v-725h-103v713q0 104 -51.5 170.5t-161.5 66.5q-45 0 -95.5 -12.5t-90 -30t-73 -35.5t-52.5 -30l-18 -13v-829h-103z" />
<glyph unicode="o" horiz-adv-x="1009" d="M127 299q-3 106 -3 212.5t3 213.5q3 138 100.5 228.5t278.5 90.5q169 0 271.5 -92t105.5 -227q3 -108 3 -214.5t-3 -211.5q-5 -139 -105 -229t-272 -90q-181 0 -278.5 89.5t-100.5 229.5zM231 305q3 -103 74.5 -169t200.5 -66q130 0 199.5 65t72.5 170q3 103 3 206 t-3 206q-3 106 -73 171.5t-201 65.5q-127 0 -198.5 -66t-74.5 -169q-3 -102 -3 -206t3 -208z" />
<glyph unicode="p" horiz-adv-x="1017" d="M143 -369v1393h95l8 -98q7 5 20 13t52 28t77 35.5t89.5 28.5t95.5 13q154 0 231 -85t80 -224q3 -107 3 -214t-3 -214q-2 -68 -23.5 -125.5t-64 -103.5t-112 -72t-159.5 -26q-65 0 -136.5 13t-110.5 27l-39 13v-402h-103zM246 129q11 -7 33 -16.5t96.5 -26t156.5 -16.5 q122 0 186.5 72.5t67.5 174.5q3 103 3 204t-3 202q-3 104 -53 167.5t-158 63.5q-46 0 -96.5 -13t-90.5 -31t-73 -36.5t-51 -31.5l-18 -13v-700z" />
<glyph unicode="q" horiz-adv-x="1019" d="M127 299q-3 105 -3 212t3 214q3 141 93.5 230t266.5 89q98 0 195.5 -12t145.5 -24l49 -13v-1364h-103v455q-7 -4 -18.5 -11t-48.5 -24t-74 -30t-89 -24t-98 -11q-154 0 -235 87.5t-84 225.5zM231 311q3 -105 56.5 -171t163.5 -66q71 0 152 26.5t126 53.5l45 26v742 q-103 32 -287 32q-123 0 -188 -68.5t-68 -170.5q-3 -101 -3 -202t3 -202z" />
<glyph unicode="r" horiz-adv-x="600" d="M143 0v1024h93l10 -147q6 7 16.5 18t44.5 40t70 51t88.5 40t103.5 18l-4 -90q-48 0 -98 -20.5t-88 -50t-69 -59t-48 -50.5l-16 -20v-754h-103z" />
<glyph unicode="s" horiz-adv-x="866" d="M92 770q0 140 87.5 207t242.5 67q64 0 132.5 -7.5t105.5 -14.5l36 -8l-14 -90q-131 30 -260 30q-104 0 -165.5 -44t-61.5 -136q0 -51 24.5 -88.5t64.5 -57.5t91 -38.5t104.5 -31t104.5 -35.5t91 -51.5t64.5 -80.5t24.5 -121q0 -144 -85.5 -217t-277.5 -73 q-71 0 -145.5 10.5t-113.5 21.5l-38 11l15 90q145 -43 272 -43q151 0 208.5 44.5t57.5 145.5q0 48 -19.5 83.5t-52 57.5t-75 38t-89 29t-93.5 27t-89.5 36t-75 51.5t-52 77t-19.5 110.5z" />
<glyph unicode="t" horiz-adv-x="649" d="M41 934v90h166v246h102v-246h299v-90h-299v-674q0 -104 36.5 -147t111.5 -43q29 0 64 3t55 6l20 3l8 -82q-97 -20 -160 -20q-119 0 -178 68.5t-59 180.5v705h-166z" />
<glyph unicode="u" horiz-adv-x="1024" d="M133 299v725h103v-713q0 -104 51.5 -170.5t161.5 -66.5q45 0 95.5 12.5t90 30.5t73 35.5t52.5 29.5l18 13v829h103v-1024h-95l-8 98q-20 -13 -54 -32t-122.5 -50.5t-157.5 -31.5q-156 0 -233.5 87t-77.5 228z" />
<glyph unicode="v" horiz-adv-x="866" d="M31 1024h104l293 -950h8l295 950h105l-324 -1024h-160z" />
<glyph unicode="w" horiz-adv-x="1323" d="M61 1024h103l162 -944h8l256 944h143l256 -944h8l162 944h103l-181 -1024h-163l-250 907h-13l-249 -907h-164z" />
<glyph unicode="x" horiz-adv-x="888" d="M41 0l346 535l-319 489h116l260 -420l261 420h116l-319 -489l346 -535h-117l-287 457l-286 -457h-117z" />
<glyph unicode="y" horiz-adv-x="933" d="M31 1024h110l312 -887h8l334 887h108l-532 -1393h-107l156 398l-41 16z" />
<glyph unicode="z" horiz-adv-x="837" d="M82 0v106l551 820v8h-529v90h644v-106l-549 -820v-8h557v-90h-674z" />
<glyph unicode="{" horiz-adv-x="645" d="M82 481v103q47 0 83 41t36 86v381q0 146 101 254t251 108v-106q-104 0 -170 -77t-66 -181v-357q0 -43 -13 -79t-31.5 -57.5t-37.5 -37t-32 -21.5l-13 -6q5 -2 13.5 -6t30.5 -19.5t39 -36t30.5 -57t13.5 -79.5v-352q0 -107 66 -186t170 -79v-106q-151 0 -251.5 111 t-100.5 262v374q0 44 -36 83.5t-83 39.5z" />
<glyph unicode="|" horiz-adv-x="444" d="M174 -369v1803h96v-1803h-96z" />
<glyph unicode="}" horiz-adv-x="645" d="M92 -283q104 0 170 79t66 186v352q0 43 13 79.5t32 57.5t37.5 35.5t31.5 19.5l13 6q-5 2 -13.5 6t-30.5 21t-39 37.5t-30.5 57t-13.5 79.5v357q0 104 -66 181t-170 77v106q150 0 251 -108t101 -254v-381q0 -45 36 -86t83 -41v-103q-47 0 -83 -39.5t-36 -83.5v-374 q0 -151 -100.5 -262t-251.5 -111v106z" />
<glyph unicode="~" horiz-adv-x="1155" d="M123 526q105 205 258 205q48 0 124.5 -39t152.5 -78t124 -39q60 0 98.5 37t82.5 115l69 -47q-105 -205 -256 -205q-48 0 -125.5 39t-154 78t-121.5 39q-60 0 -99 -37.5t-83 -114.5z" />
<glyph unicode="&#xa1;" horiz-adv-x="495" d="M184 -410l19 1047h92l16 -1047h-127zM186 862v162h125v-162h-125z" />
<glyph unicode="&#xa2;" d="M281 319q-6 213 0 426q3 127 87.5 216t233.5 102v104h107v-104q42 -3 88 -8.5t71 -10.5l25 -4l-10 -88q-138 23 -234 23q-118 0 -189.5 -69t-74.5 -169q-6 -206 0 -411q3 -99 74 -167.5t190 -68.5q60 0 121.5 7t93.5 15l31 7l14 -86q-94 -25 -200 -31v-104h-107v104 q-150 12 -234 100.5t-87 216.5z" />
<glyph unicode="&#xa3;" d="M166 690v92h117q-50 174 -50 297q0 375 469 375q55 0 123 -7t109 -15l41 -7l-6 -96q-146 25 -267 25q-352 0 -352 -275q0 -136 53 -297h521v-92h-500q31 -128 31 -223q0 -55 -16.5 -113t-39.5 -101.5t-46 -79.5t-39 -55l-17 -18h723v-100h-846v117q7 6 18 17.5t39 49 t50 77.5t39.5 99t17.5 117q0 88 -37 213h-135z" />
<glyph unicode="&#xa4;" d="M164 248l131 129q-25 58 -25 121v215q0 59 23 116l-129 129l72 72l114 -115q43 46 106.5 71.5t135.5 25.5q150 0 244 -97l116 115l72 -72l-131 -129q22 -55 22 -116v-215q0 -66 -24 -121l133 -129l-72 -72l-118 117q-91 -94 -242 -94q-145 0 -240 92l-116 -115zM379 494 q0 -96 57.5 -146.5t155.5 -50.5q97 0 155 50.5t58 144.5v225q0 95 -58 145.5t-155 50.5q-98 0 -155.5 -50t-57.5 -146v-223z" />
<glyph unicode="&#xa5;" d="M98 1434h121l371 -850h8l371 850h121l-310 -676h197v-92h-238l-82 -179h320v-92h-324v-395h-118v395h-324v92h319l-81 179h-238v92h195z" />
<glyph unicode="&#xa6;" horiz-adv-x="444" d="M174 -369v750h96v-750h-96zM174 684v750h96v-750h-96z" />
<glyph unicode="&#xa7;" horiz-adv-x="1153" d="M164 582q0 44 13.5 90.5t32.5 82t38.5 64.5t33 44.5t15.5 15.5q-119 85 -119 256q0 163 109.5 241t312.5 78q69 0 154.5 -8t136.5 -16l51 -9l-6 -92q-187 31 -330 31q-163 0 -239 -54t-76 -167q0 -77 38.5 -126.5t100 -72t136 -36.5t149 -31.5t136 -46.5t100 -91 t38.5 -155q0 -69 -32.5 -143.5t-64.5 -114.5l-32 -39q115 -87 115 -256q0 -163 -109.5 -241.5t-312.5 -78.5q-69 0 -154.5 8.5t-136.5 16.5l-51 8l6 92q187 -31 330 -31q163 0 239 54.5t76 167.5q0 77 -38.5 126.5t-100 72t-136 36.5t-149 31.5t-136 46.5t-100 91t-38.5 155 zM281 602q0 -60 25.5 -103t65 -66t95.5 -40t107.5 -25.5t111.5 -21.5t98 -29q10 14 24.5 37t39 87t24.5 118q0 60 -25.5 103t-65 66t-95.5 40t-107.5 25.5t-111.5 21.5t-98 29q-10 -14 -24.5 -37t-39 -87t-24.5 -118z" />
<glyph unicode="&#xa8;" horiz-adv-x="473" d="M0 1208v164h125v-164h-125zM348 1208v164h125v-164h-125z" />
<glyph unicode="&#xa9;" horiz-adv-x="1720" d="M123 717q0 151 58 287.5t157 235t235.5 156.5t286.5 58q151 0 287.5 -58t235 -156.5t156.5 -235t58 -287.5q0 -150 -58 -286.5t-156.5 -235.5t-235 -157t-287.5 -58q-150 0 -286.5 58t-235.5 157t-157 235.5t-58 286.5zM215 717q0 -130 51.5 -249t138.5 -206t206 -138.5 t249 -51.5t250 51.5t207 138.5t138.5 206t51.5 249q0 174 -87.5 323t-236.5 236.5t-323 87.5q-130 0 -249 -51.5t-206 -138.5t-138.5 -207t-51.5 -250zM578 582q-5 137 0 274q5 111 80.5 184.5t213.5 73.5q50 0 98.5 -5t71.5 -10l23 -5l-10 -82q-89 16 -187 16 q-83 0 -134 -48.5t-54 -117.5q-5 -142 0 -291q3 -67 53.5 -114t134.5 -47q55 0 103.5 6t70.5 12l21 6l12 -82q-80 -28 -205 -28q-136 0 -211.5 73t-80.5 185z" />
<glyph unicode="&#xaa;" horiz-adv-x="724" d="M102 969q0 89 53.5 147t147.5 58h203v65q0 59 -40.5 103t-109.5 44q-47 0 -99.5 -6.5t-80.5 -13.5l-29 -6l-8 67q109 27 215 27q110 0 169 -58t59 -149v-463h-68l-6 70q-13 -9 -34.5 -23t-78 -37.5t-100.5 -23.5q-89 0 -141 56t-52 143zM123 594v70h459v-70h-459z M184 971q0 -125 115 -125q40 0 91.5 23t83.5 46l32 23v168h-197q-61 0 -93 -38t-32 -97z" />
<glyph unicode="&#xab;" horiz-adv-x="931" d="M133 596l246 313h123l-246 -313l246 -315h-123zM420 596l246 313h122l-245 -313l245 -315h-122z" />
<glyph unicode="&#xac;" d="M154 549v98h878v-487h-108v389h-770z" />
<glyph unicode="&#xad;" horiz-adv-x="1705" />
<glyph unicode="&#xae;" horiz-adv-x="1081" d="M102 1016q0 181 128.5 309.5t310.5 128.5q181 0 309.5 -128t128.5 -310t-128.5 -310t-309.5 -128q-182 0 -310.5 128.5t-128.5 309.5zM182 1016q0 -151 104 -255t255 -104t254.5 104t103.5 255t-103.5 254.5t-254.5 103.5t-255 -103.5t-104 -254.5zM395 784v465h185 q55 0 86.5 -31.5t31.5 -76.5v-84q0 -36 -17.5 -64.5t-49.5 -40.5l100 -168h-90l-86 160h-82v-160h-78zM473 1018h107q45 0 45 35v90q0 26 -45 26h-107v-151z" />
<glyph unicode="&#xaf;" horiz-adv-x="567" d="M0 1227v94h567v-94h-567z" />
<glyph unicode="&#xb0;" horiz-adv-x="776" d="M102 1169q0 118 84 201.5t201 83.5q119 0 203 -83.5t84 -201.5q0 -117 -84.5 -200.5t-202.5 -83.5q-117 0 -201 83.5t-84 200.5zM180 1169q0 -85 61 -146.5t146 -61.5q87 0 148 61.5t61 146.5t-61 147t-148 62q-85 0 -146 -62t-61 -147z" />
<glyph unicode="&#xb1;" d="M154 0v96h878v-96h-878zM154 604v98h389v322h98v-322h391v-98h-391v-325h-98v325h-389z" />
<glyph unicode="&#xb2;" horiz-adv-x="778" d="M123 539v106l328 346q62 65 82 104t20 107q0 80 -51.5 122t-132.5 42q-42 0 -95 -7t-86 -15l-32 -7l-4 88q112 29 227 29q127 0 201.5 -62.5t74.5 -193.5q0 -83 -28.5 -137.5t-87.5 -114.5l-314 -317h428v-90h-530z" />
<glyph unicode="&#xb3;" horiz-adv-x="770" d="M123 553l4 82q114 -27 223 -27q195 0 195 211q0 46 -13.5 79t-31.5 49.5t-48 26t-51.5 11.5t-52.5 2h-51v86l217 270h-383v91h485v-99l-208 -260q33 -2 63.5 -10t63.5 -27.5t57 -47t39.5 -72.5t15.5 -101q0 -69 -19 -123t-49 -86.5t-69.5 -53.5t-77 -28.5t-76.5 -7.5 q-61 0 -119 8.5t-86 17.5z" />
<glyph unicode="&#xb4;" horiz-adv-x="385" d="M0 1178l221 256h164l-266 -256h-119z" />
<glyph unicode="&#xb5;" horiz-adv-x="1034" d="M143 1024h103v-713q0 -105 51.5 -173t161.5 -68q45 0 95.5 13t90 31t73 36.5t52.5 31.5l18 13v829h103v-1024h-94l-9 98q-7 -5 -20 -13t-52 -28t-77 -35.5t-89 -28.5t-95 -13q-63 0 -115 20t-73 40l-21 19v-428h-101z" />
<glyph unicode="&#xb6;" horiz-adv-x="1001" d="M102 1038q0 166 117.5 281t284.5 115h334v-1803h-109v1702h-104v-1702h-90v1022q-116 0 -216.5 53.5t-158.5 142.5t-58 189z" />
<glyph unicode="&#xb7;" horiz-adv-x="452" d="M164 520v162h125v-162h-125z" />
<glyph unicode="&#xb8;" horiz-adv-x="450" d="M133 -367l6 70q72 -14 117 -14q94 0 94 86q0 71 -94 71h-76l35 154h92l-18 -92q77 0 119.5 -28t42.5 -105q0 -80 -45 -120t-123 -40q-26 0 -63.5 4.5t-61.5 8.5z" />
<glyph unicode="&#xb9;" horiz-adv-x="485" d="M102 1274v86l144 74h96v-895h-92v804z" />
<glyph unicode="&#xba;" horiz-adv-x="722" d="M106 979q-6 133 0 266q5 89 73.5 149t185.5 60q112 0 179 -59t72 -150q6 -133 0 -266q-3 -89 -71 -149t-180 -60q-118 0 -187 60.5t-72 148.5zM119 594v70h483v-70h-483zM193 983q3 -59 49.5 -98t122.5 -39t120 39t47 100q6 127 0 254q-3 63 -47 102t-123 39 q-73 0 -119.5 -40t-49.5 -99q-6 -129 0 -258z" />
<glyph unicode="&#xbb;" horiz-adv-x="931" d="M143 281l246 315l-246 313h123l246 -313l-246 -315h-123zM430 281l246 315l-246 313h123l246 -313l-246 -315h-123z" />
<glyph unicode="&#xbc;" horiz-adv-x="1411" d="M102 1274v86l144 74h96v-895h-92v804zM260 0l645 1434h103l-648 -1434h-100zM725 201v80l309 614h101l-312 -614h312v231h92v-231h82v-80h-82v-201h-92v201h-410z" />
<glyph unicode="&#xbd;" horiz-adv-x="1568" d="M102 1274v86l144 74h96v-895h-92v804zM260 0l645 1434h103l-648 -1434h-100zM893 0h530v90h-428l314 318q60 60 88 114t28 137q0 131 -74.5 193.5t-201.5 62.5q-51 0 -108 -7t-88 -14l-31 -7l4 -88q119 28 213 28q81 0 132.5 -41.5t51.5 -121.5q0 -68 -20 -107t-82 -104 l-328 -347v-106z" />
<glyph unicode="&#xbe;" horiz-adv-x="1658" d="M143 553l4 82q115 -27 224 -27q194 0 194 211q0 46 -13 79t-31.5 49.5t-48 26t-51 11.5t-52.5 2h-52v86l218 270h-383v91h485v-99l-209 -260q33 -2 64 -10t63.5 -27.5t57 -47t40 -72.5t15.5 -101q0 -69 -19 -123t-49 -86.5t-69.5 -53.5t-77 -28.5t-76.5 -7.5 q-61 0 -119.5 8.5t-86.5 17.5zM508 0l645 1434h102l-647 -1434h-100zM973 201v80l309 614h100l-311 -614h311v231h93v-231h81v-80h-81v-201h-93v201h-409z" />
<glyph unicode="&#xbf;" horiz-adv-x="1028" d="M102 -57q0 -96 35.5 -168.5t99 -116.5t145.5 -66t181 -22q93 0 183.5 13t135.5 25l44 13l-8 96q-175 -47 -345 -47q-162 0 -256 65.5t-94 209.5q0 66 16.5 114.5t44.5 77.5t64.5 50t76.5 37.5t80 35t76.5 47.5t64.5 69.5t44.5 107.5t16.5 155h-103q0 -75 -17 -130 t-46 -88t-67 -56.5t-79.5 -40.5t-83 -34.5t-79.5 -43.5t-67 -63t-46 -98t-17 -142zM592 862v162h125v-162h-125z" />
<glyph unicode="&#xc0;" horiz-adv-x="1177" d="M41 0l461 1434h174l461 -1434h-115l-141 444h-582l-141 -444h-117zM274 1843h164l221 -256h-118zM330 541h520l-254 794h-14z" />
<glyph unicode="&#xc1;" horiz-adv-x="1177" d="M41 0l461 1434h174l461 -1434h-115l-141 444h-582l-141 -444h-117zM330 541h520l-254 794h-14zM510 1587l221 256h164l-266 -256h-119z" />
<glyph unicode="&#xc2;" horiz-adv-x="1177" d="M41 0l461 1434h174l461 -1434h-115l-141 444h-582l-141 -444h-117zM326 1587l200 256h123l201 -256h-111l-151 158l-152 -158h-110zM330 541h520l-254 794h-14z" />
<glyph unicode="&#xc3;" horiz-adv-x="1177" d="M41 0l461 1434h174l461 -1434h-115l-141 444h-582l-141 -444h-117zM291 1604q0 58 47 120t117 62q48 0 96.5 -24.5t91 -49t74.5 -24.5t52.5 25.5t25.5 62.5h92q0 -59 -47 -121t-117 -62q-38 0 -77.5 15.5t-66.5 34t-59.5 34t-58.5 15.5q-32 0 -52.5 -25.5t-25.5 -62.5 h-92zM330 541h520l-254 794h-14z" />
<glyph unicode="&#xc4;" horiz-adv-x="1177" d="M41 0l461 1434h174l461 -1434h-115l-141 444h-582l-141 -444h-117zM330 541h520l-254 794h-14zM352 1618v164h125v-164h-125zM700 1618v164h125v-164h-125z" />
<glyph unicode="&#xc5;" horiz-adv-x="1177" d="M41 0l461 1434h174l461 -1434h-115l-141 444h-582l-141 -444h-117zM330 541h520l-254 794h-14zM420 1712q0 69 48.5 115.5t117.5 46.5q68 0 118 -47t50 -115q0 -67 -50 -113.5t-118 -46.5q-69 0 -117.5 46.5t-48.5 113.5zM504 1714q0 -33 24.5 -57.5t57.5 -24.5 q34 0 59 25t25 57q0 34 -25 59t-59 25t-58 -25t-24 -59z" />
<glyph unicode="&#xc6;" horiz-adv-x="1933" d="M20 0l820 1434h968v-101h-698v-538h633v-99h-633v-596h721v-100h-838v440h-604l-252 -440h-117zM444 537h549v798h-96z" />
<glyph unicode="&#xc7;" horiz-adv-x="1064" d="M137 434q-6 281 0 565q2 92 41 175t105 145t162 98.5t206 36.5q70 0 148 -9t121 -19l43 -9l-7 -102q-172 37 -305 37q-178 0 -283 -103t-108 -250q-6 -283 0 -565q2 -71 28 -134t74 -112t122.5 -77.5t166.5 -28.5q61 0 140 10t127 20l49 11l6 -103q-178 -38 -309 -40 l-15 -72q77 0 119.5 -28t42.5 -105q0 -80 -45 -120t-123 -40q-26 0 -63.5 4.5t-61.5 8.5l-24 5l6 70q71 -14 116 -14q95 0 95 86q0 71 -95 71h-75l30 140q-192 23 -311.5 149.5t-122.5 298.5z" />
<glyph unicode="&#xc8;" horiz-adv-x="1128" d="M164 0v1434h842v-101h-725v-538h657v-99h-657v-596h745v-100h-862zM287 1843h164l221 -256h-119z" />
<glyph unicode="&#xc9;" horiz-adv-x="1128" d="M164 0v1434h842v-101h-725v-538h657v-99h-657v-596h745v-100h-862zM528 1587l222 256h163l-266 -256h-119z" />
<glyph unicode="&#xca;" horiz-adv-x="1128" d="M164 0v1434h842v-101h-725v-538h657v-99h-657v-596h745v-100h-862zM301 1587l201 256h123l200 -256h-110l-152 158l-151 -158h-111z" />
<glyph unicode="&#xcb;" horiz-adv-x="1128" d="M164 0v1434h842v-101h-725v-538h657v-99h-657v-596h745v-100h-862zM328 1618v164h125v-164h-125zM676 1618v164h125v-164h-125z" />
<glyph unicode="&#xcc;" horiz-adv-x="444" d="M-98 1843h164l221 -256h-119zM164 0v1434h117v-1434h-117z" />
<glyph unicode="&#xcd;" horiz-adv-x="444" d="M160 1587l221 256h164l-266 -256h-119zM164 0v1434h117v-1434h-117z" />
<glyph unicode="&#xce;" horiz-adv-x="444" d="M-39 1587l201 256h123l200 -256h-110l-152 158l-151 -158h-111zM164 0v1434h117v-1434h-117z" />
<glyph unicode="&#xcf;" horiz-adv-x="444" d="M-14 1618v164h125v-164h-125zM164 0v1434h117v-1434h-117zM334 1618v164h125v-164h-125z" />
<glyph unicode="&#xd0;" horiz-adv-x="1261" d="M61 696v101h129v637h420q223 0 366 -124t148 -311q6 -284 0 -565q-5 -188 -147 -311t-367 -123h-420v696h-129zM307 100h303q183 0 288 94.5t108 239.5q6 282 0 565q-3 144 -109 239t-287 95h-303v-536h314v-101h-314v-596z" />
<glyph unicode="&#xd1;" horiz-adv-x="1292" d="M166 0v1434h160l643 -1194l43 -109v1303h114v-1434h-159l-643 1194l-43 106v-1300h-115zM348 1604q0 58 47 120t117 62q48 0 96.5 -24.5t91 -49t74.5 -24.5t52.5 25.5t25.5 62.5h92q0 -59 -47 -121t-117 -62q-38 0 -77.5 15.5t-66.5 34t-59.5 34t-58.5 15.5 q-32 0 -52.5 -25.5t-25.5 -62.5h-92z" />
<glyph unicode="&#xd2;" horiz-adv-x="1273" d="M137 434q-6 281 0 565q5 191 143 323t357 132t357 -132t143 -323q6 -284 0 -565q-2 -92 -38 -174.5t-99.5 -144.5t-157.5 -98.5t-205 -36.5t-205 36.5t-157.5 98.5t-99.5 144.5t-38 174.5zM260 434q2 -71 26 -134t69 -112.5t118 -78.5t164 -29t164 29t118 78.5t69 112.5 t26 134q6 282 0 565q-2 71 -26.5 134t-70 113t-118 79t-162.5 29t-162.5 -29t-118 -79t-70 -113t-26.5 -134q-6 -283 0 -565zM340 1843h164l221 -256h-119z" />
<glyph unicode="&#xd3;" horiz-adv-x="1273" d="M137 434q-6 281 0 565q5 191 143 323t357 132t357 -132t143 -323q6 -284 0 -565q-2 -92 -38 -174.5t-99.5 -144.5t-157.5 -98.5t-205 -36.5t-205 36.5t-157.5 98.5t-99.5 144.5t-38 174.5zM260 434q2 -71 26 -134t69 -112.5t118 -78.5t164 -29t164 29t118 78.5t69 112.5 t26 134q6 282 0 565q-2 71 -26.5 134t-70 113t-118 79t-162.5 29t-162.5 -29t-118 -79t-70 -113t-26.5 -134q-6 -283 0 -565zM580 1587l221 256h164l-267 -256h-118z" />
<glyph unicode="&#xd4;" horiz-adv-x="1273" d="M137 434q-6 281 0 565q5 191 143 323t357 132t357 -132t143 -323q6 -284 0 -565q-2 -92 -38 -174.5t-99.5 -144.5t-157.5 -98.5t-205 -36.5t-205 36.5t-157.5 98.5t-99.5 144.5t-38 174.5zM260 434q2 -71 26 -134t69 -112.5t118 -78.5t164 -29t164 29t118 78.5t69 112.5 t26 134q6 282 0 565q-2 71 -26.5 134t-70 113t-118 79t-162.5 29t-162.5 -29t-118 -79t-70 -113t-26.5 -134q-6 -283 0 -565zM375 1587l200 256h123l201 -256h-111l-151 158l-152 -158h-110z" />
<glyph unicode="&#xd5;" horiz-adv-x="1273" d="M137 434q-6 281 0 565q5 191 143 323t357 132t357 -132t143 -323q6 -284 0 -565q-2 -92 -38 -174.5t-99.5 -144.5t-157.5 -98.5t-205 -36.5t-205 36.5t-157.5 98.5t-99.5 144.5t-38 174.5zM260 434q2 -71 26 -134t69 -112.5t118 -78.5t164 -29t164 29t118 78.5t69 112.5 t26 134q6 282 0 565q-2 71 -26.5 134t-70 113t-118 79t-162.5 29t-162.5 -29t-118 -79t-70 -113t-26.5 -134q-6 -283 0 -565zM338 1604q0 58 47 120t117 62q48 0 96.5 -24.5t91 -49t74.5 -24.5t52.5 25.5t25.5 62.5h92q0 -59 -47 -121t-117 -62q-38 0 -77.5 15.5t-66.5 34 t-59.5 34t-58.5 15.5q-32 0 -52.5 -25.5t-25.5 -62.5h-92z" />
<glyph unicode="&#xd6;" horiz-adv-x="1273" d="M137 434q-6 281 0 565q5 191 143 323t357 132t357 -132t143 -323q6 -284 0 -565q-2 -92 -38 -174.5t-99.5 -144.5t-157.5 -98.5t-205 -36.5t-205 36.5t-157.5 98.5t-99.5 144.5t-38 174.5zM260 434q2 -71 26 -134t69 -112.5t118 -78.5t164 -29t164 29t118 78.5t69 112.5 t26 134q6 282 0 565q-2 71 -26.5 134t-70 113t-118 79t-162.5 29t-162.5 -29t-118 -79t-70 -113t-26.5 -134q-6 -283 0 -565zM399 1618v164h125v-164h-125zM748 1618v164h124v-164h-124z" />
<glyph unicode="&#xd7;" d="M217 270l305 308l-303 303l70 69l303 -303l307 305l70 -67l-307 -307l305 -306l-70 -69l-305 305l-305 -305z" />
<glyph unicode="&#xd8;" horiz-adv-x="1273" d="M137 434q-6 281 0 565q5 191 143 323t357 132q191 0 326 -106l53 86h114l-96 -156q97 -120 103 -279q6 -284 0 -565q-2 -92 -38 -174.5t-99.5 -144.5t-157.5 -98.5t-205 -36.5q-196 0 -328 104l-51 -84h-115l95 154q-98 121 -101 280zM260 434q0 -91 43 -172l604 993 q-106 99 -270 99q-90 0 -162.5 -29t-118 -79t-70 -113t-26.5 -134q-6 -283 0 -565zM365 176q103 -96 272 -96q91 0 164 29t118 78.5t69 112.5t26 134q6 282 0 565q-3 94 -43 172z" />
<glyph unicode="&#xd9;" horiz-adv-x="1298" d="M154 434v1000h116v-1000q0 -148 100 -251t279 -103q89 0 162.5 29t120 78.5t71.5 112.5t25 134v1000h117v-1000q0 -193 -136.5 -323.5t-359.5 -130.5q-225 0 -360 130t-135 324zM344 1843h164l221 -256h-119z" />
<glyph unicode="&#xda;" horiz-adv-x="1298" d="M154 434v1000h116v-1000q0 -148 100 -251t279 -103q89 0 162.5 29t120 78.5t71.5 112.5t25 134v1000h117v-1000q0 -193 -136.5 -323.5t-359.5 -130.5q-225 0 -360 130t-135 324zM596 1587l221 256h164l-266 -256h-119z" />
<glyph unicode="&#xdb;" horiz-adv-x="1298" d="M154 434v1000h116v-1000q0 -148 100 -251t279 -103q89 0 162.5 29t120 78.5t71.5 112.5t25 134v1000h117v-1000q0 -193 -136.5 -323.5t-359.5 -130.5q-225 0 -360 130t-135 324zM387 1587l201 256h123l200 -256h-110l-152 158l-151 -158h-111z" />
<glyph unicode="&#xdc;" horiz-adv-x="1298" d="M154 434v1000h116v-1000q0 -148 100 -251t279 -103q89 0 162.5 29t120 78.5t71.5 112.5t25 134v1000h117v-1000q0 -193 -136.5 -323.5t-359.5 -130.5q-225 0 -360 130t-135 324zM412 1618v164h125v-164h-125zM760 1618v164h125v-164h-125z" />
<glyph unicode="&#xdd;" horiz-adv-x="1136" d="M31 1434h135l397 -748h8l400 748h135l-479 -865v-569h-117v569zM496 1587l221 256h164l-267 -256h-118z" />
<glyph unicode="&#xde;" horiz-adv-x="1120" d="M164 0v1434h117v-205h403q160 0 252.5 -86.5t97.5 -216.5q6 -141 0 -285q-5 -131 -97.5 -217t-252.5 -86h-403v-338h-117zM281 438h407q117 0 172 53.5t58 139.5q6 151 0 303q-5 88 -59 141t-171 53h-407v-690z" />
<glyph unicode="&#xdf;" horiz-adv-x="1062" d="M143 0v1116q0 66 23 125.5t67 107.5t116.5 76.5t162.5 28.5q159 0 262 -91t103 -224v-127q-5 -2 -14 -5t-34.5 -14t-48.5 -23.5t-51.5 -33.5t-49 -44t-34.5 -54.5t-14 -65.5q0 -43 19.5 -76.5t50 -56t68 -44.5t75 -49t68 -60.5t50 -88t19.5 -123.5q0 -292 -371 -292 q-45 0 -94 6t-76 12l-26 6l14 84q94 -20 203 -20q128 0 187 48.5t59 145.5q0 52 -15 93t-39.5 66.5t-56 49.5t-64 42t-64 42t-56 51t-39.5 69t-15 95q0 41 13.5 79t35.5 65.5t48.5 51t53 39t48.5 26.5t35 15l14 5v71q0 108 -70 174t-196 66q-127 0 -195.5 -75.5 t-68.5 -186.5v-1102h-103z" />
<glyph unicode="&#xe0;" horiz-adv-x="976" d="M102 289q0 138 75 227.5t220 89.5h344v107q0 102 -61 171.5t-174 69.5q-70 0 -153 -10t-131 -20l-48 -9l-10 91q188 38 338 38q167 0 254.5 -89.5t87.5 -229.5v-725h-92l-11 121q-7 -6 -19.5 -15.5t-51 -33.5t-77 -43t-93 -34t-103.5 -15q-137 0 -216 86t-79 223z M197 1434h163l222 -256h-119zM207 291q0 -98 47 -159.5t149 -61.5q48 0 100.5 17t93 41.5t74.5 49t52 41.5l18 17v280h-335q-105 0 -152 -61.5t-47 -163.5z" />
<glyph unicode="&#xe1;" horiz-adv-x="976" d="M102 289q0 138 75 227.5t220 89.5h344v107q0 102 -61 171.5t-174 69.5q-70 0 -153 -10t-131 -20l-48 -9l-10 91q188 38 338 38q167 0 254.5 -89.5t87.5 -229.5v-725h-92l-11 121q-7 -6 -19.5 -15.5t-51 -33.5t-77 -43t-93 -34t-103.5 -15q-137 0 -216 86t-79 223z M207 291q0 -98 47 -159.5t149 -61.5q48 0 100.5 17t93 41.5t74.5 49t52 41.5l18 17v280h-335q-105 0 -152 -61.5t-47 -163.5zM424 1178l221 256h164l-266 -256h-119z" />
<glyph unicode="&#xe2;" horiz-adv-x="976" d="M102 289q0 138 75 227.5t220 89.5h344v107q0 102 -61 171.5t-174 69.5q-70 0 -153 -10t-131 -20l-48 -9l-10 91q188 38 338 38q167 0 254.5 -89.5t87.5 -229.5v-725h-92l-11 121q-7 -6 -19.5 -15.5t-51 -33.5t-77 -43t-93 -34t-103.5 -15q-137 0 -216 86t-79 223z M207 291q0 -98 47 -159.5t149 -61.5q48 0 100.5 17t93 41.5t74.5 49t52 41.5l18 17v280h-335q-105 0 -152 -61.5t-47 -163.5zM225 1178l201 256h123l201 -256h-111l-152 157l-151 -157h-111z" />
<glyph unicode="&#xe3;" horiz-adv-x="976" d="M102 289q0 138 75 227.5t220 89.5h344v107q0 102 -61 171.5t-174 69.5q-70 0 -153 -10t-131 -20l-48 -9l-10 91q188 38 338 38q167 0 254.5 -89.5t87.5 -229.5v-725h-92l-11 121q-7 -6 -19.5 -15.5t-51 -33.5t-77 -43t-93 -34t-103.5 -15q-137 0 -216 86t-79 223z M190 1194q0 58 47 120t117 62q48 0 96.5 -24.5t91 -49t74.5 -24.5t52.5 25.5t25.5 62.5h92q0 -59 -46.5 -120.5t-116.5 -61.5q-48 0 -97.5 24.5t-91.5 49t-74 24.5t-52 -25.5t-25 -62.5h-93zM207 291q0 -98 47 -159.5t149 -61.5q48 0 100.5 17t93 41.5t74.5 49t52 41.5 l18 17v280h-335q-105 0 -152 -61.5t-47 -163.5z" />
<glyph unicode="&#xe4;" horiz-adv-x="976" d="M102 289q0 138 75 227.5t220 89.5h344v107q0 102 -61 171.5t-174 69.5q-70 0 -153 -10t-131 -20l-48 -9l-10 91q188 38 338 38q167 0 254.5 -89.5t87.5 -229.5v-725h-92l-11 121q-7 -6 -19.5 -15.5t-51 -33.5t-77 -43t-93 -34t-103.5 -15q-137 0 -216 86t-79 223z M207 291q0 -98 47 -159.5t149 -61.5q48 0 100.5 17t93 41.5t74.5 49t52 41.5l18 17v280h-335q-105 0 -152 -61.5t-47 -163.5zM252 1208v164h125v-164h-125zM600 1208v164h125v-164h-125z" />
<glyph unicode="&#xe5;" horiz-adv-x="976" d="M102 289q0 138 75 227.5t220 89.5h344v107q0 102 -61 171.5t-174 69.5q-70 0 -153 -10t-131 -20l-48 -9l-10 91q188 38 338 38q167 0 254.5 -89.5t87.5 -229.5v-725h-92l-11 121q-7 -6 -19.5 -15.5t-51 -33.5t-77 -43t-93 -34t-103.5 -15q-137 0 -216 86t-79 223z M207 291q0 -98 47 -159.5t149 -61.5q48 0 100.5 17t93 41.5t74.5 49t52 41.5l18 17v280h-335q-105 0 -152 -61.5t-47 -163.5zM319 1303q0 69 48.5 115t117.5 46t118.5 -46.5t49.5 -114.5q0 -67 -50 -113.5t-118 -46.5q-69 0 -117.5 46.5t-48.5 113.5zM403 1305 q0 -33 24.5 -57.5t57.5 -24.5q34 0 59 25t25 57q0 34 -25 59t-59 25t-58 -25t-24 -59z" />
<glyph unicode="&#xe6;" horiz-adv-x="1560" d="M102 285q0 134 73.5 214.5t219.5 80.5h344q0 78 -2 135q-3 103 -61.5 172t-171.5 69q-56 0 -138.5 -10t-137.5 -20l-54 -11l-12 91q221 41 350 41q60 0 111.5 -15t82 -37t52.5 -44t30 -37l9 -15q4 6 11 16t34 35.5t59 45t87 35.5t116 16q162 0 258 -92.5t96 -229.5v-236 h-614q0 -123 2 -180q5 -101 71.5 -171t184.5 -70q63 0 139.5 10t122.5 20l45 11l14 -89q-137 -43 -319 -43q-71 0 -130.5 17.5t-94 42t-59 49t-33.5 42.5l-9 17q-7 -7 -20.5 -18t-56 -40t-85.5 -51.5t-104 -40.5t-117 -18q-137 0 -215 85.5t-78 222.5zM207 287 q0 -98 46.5 -157.5t149.5 -59.5q48 0 101.5 18t95 43.5t76 51t53.5 43.5l19 18q-4 40 -7 101.5t-3 102.5l-1 41h-331q-109 0 -154 -51t-45 -151zM844 580h512q0 94 -2 135q-6 101 -72 171t-174 70q-122 0 -189.5 -68t-72.5 -173z" />
<glyph unicode="&#xe7;" horiz-adv-x="817" d="M127 299q-6 213 0 426q3 137 101.5 228t269.5 91q50 0 110.5 -6t95.5 -12l35 -6l-10 -88q-137 22 -233 22q-119 0 -190.5 -68.5t-74.5 -168.5q-6 -206 0 -412q3 -99 74 -167t191 -68q60 0 121 7t93 14l31 7l15 -86q-115 -28 -238 -32l-14 -72q77 0 119.5 -28t42.5 -105 q0 -80 -45 -120t-123 -40q-26 0 -63.5 4.5t-62.5 8.5l-24 5l6 70q72 -14 117 -14q94 0 94 86q0 71 -94 71h-76l31 138q-140 18 -218 105t-81 210z" />
<glyph unicode="&#xe8;" horiz-adv-x="946" d="M127 299q-6 210 0 426q3 136 100 227.5t260 91.5q162 0 259.5 -91.5t97.5 -227.5v-246h-615q0 -115 2 -170q5 -103 70.5 -171t190.5 -68q76 0 152 10t114 20l37 11l14 -84q-14 -5 -40 -13t-110 -21t-172 -13q-170 0 -263.5 90t-96.5 229zM203 1434h164l221 -256h-119z M229 569h512q0 103 -2 146q-5 99 -72.5 169t-174.5 70q-122 0 -189 -67t-72 -172z" />
<glyph unicode="&#xe9;" horiz-adv-x="946" d="M127 299q-6 210 0 426q3 136 100 227.5t260 91.5q162 0 259.5 -91.5t97.5 -227.5v-246h-615q0 -115 2 -170q5 -103 70.5 -171t190.5 -68q76 0 152 10t114 20l37 11l14 -84q-14 -5 -40 -13t-110 -21t-172 -13q-170 0 -263.5 90t-96.5 229zM229 569h512q0 103 -2 146 q-5 99 -72.5 169t-174.5 70q-122 0 -189 -67t-72 -172zM436 1178l221 256h164l-266 -256h-119z" />
<glyph unicode="&#xea;" horiz-adv-x="946" d="M127 299q-6 210 0 426q3 136 100 227.5t260 91.5q162 0 259.5 -91.5t97.5 -227.5v-246h-615q0 -115 2 -170q5 -103 70.5 -171t190.5 -68q76 0 152 10t114 20l37 11l14 -84q-14 -5 -40 -13t-110 -21t-172 -13q-170 0 -263.5 90t-96.5 229zM229 569h512q0 103 -2 146 q-5 99 -72.5 169t-174.5 70q-122 0 -189 -67t-72 -172zM240 1178l200 256h123l201 -256h-111l-151 157l-152 -157h-110z" />
<glyph unicode="&#xeb;" horiz-adv-x="946" d="M127 299q-6 210 0 426q3 136 100 227.5t260 91.5q162 0 259.5 -91.5t97.5 -227.5v-246h-615q0 -115 2 -170q5 -103 70.5 -171t190.5 -68q76 0 152 10t114 20l37 11l14 -84q-14 -5 -40 -13t-110 -21t-172 -13q-170 0 -263.5 90t-96.5 229zM229 569h512q0 103 -2 146 q-5 99 -72.5 169t-174.5 70q-122 0 -189 -67t-72 -172zM260 1208v164h125v-164h-125zM608 1208v164h125v-164h-125z" />
<glyph unicode="&#xec;" horiz-adv-x="399" d="M-121 1434h164l221 -256h-119zM147 0v1024h103v-1024h-103z" />
<glyph unicode="&#xed;" horiz-adv-x="399" d="M125 1178l221 256h164l-266 -256h-119zM147 0v1024h103v-1024h-103z" />
<glyph unicode="&#xee;" horiz-adv-x="399" d="M-61 1178l200 256h123l201 -256h-111l-151 157l-152 -157h-110zM147 0v1024h103v-1024h-103z" />
<glyph unicode="&#xef;" horiz-adv-x="399" d="M-37 1208v164h125v-164h-125zM147 0v1024h103v-1024h-103zM311 1208v164h125v-164h-125z" />
<glyph unicode="&#xf0;" horiz-adv-x="1040" d="M137 295q-5 170 0 342q5 136 105 225.5t280 89.5q68 0 137 -17t105 -33l35 -17q0 47 -27.5 140.5t-73.5 160.5l-174 -80v88l129 57q-127 113 -272 113l-53 -2l-9 88q58 4 70 4q201 0 354 -160l164 74v-88l-116 -53q104 -174 110 -369q9 -278 0 -563q-5 -135 -108 -225 t-271 -90q-180 0 -280 89t-105 226zM240 301q3 -100 79 -165.5t203 -65.5q124 0 199 70t78 163q9 242 0 485q-5 3 -13.5 8.5t-37.5 19t-59.5 23.5t-76.5 18.5t-92 8.5q-125 0 -201 -66.5t-79 -166.5q-5 -166 0 -332z" />
<glyph unicode="&#xf1;" horiz-adv-x="1064" d="M143 0v1024h95l8 -98q20 13 54 32t122.5 50.5t157.5 31.5q156 0 233.5 -87t77.5 -228v-725h-103v713q0 104 -51.5 170.5t-161.5 66.5q-45 0 -95.5 -12.5t-90 -30t-73 -35.5t-52.5 -30l-18 -13v-829h-103zM233 1194q0 58 47 120t117 62q48 0 96.5 -24.5t91 -49t74.5 -24.5 t52.5 25.5t25.5 62.5h92q0 -59 -46.5 -120.5t-116.5 -61.5q-48 0 -97.5 24.5t-91.5 49t-74 24.5t-52 -25.5t-25 -62.5h-93z" />
<glyph unicode="&#xf2;" horiz-adv-x="1009" d="M127 299q-6 213 0 426q3 138 100.5 228.5t278.5 90.5q169 0 271.5 -92t105.5 -227q6 -215 0 -426q-5 -139 -105 -229t-272 -90q-181 0 -278.5 89.5t-100.5 229.5zM197 1434h163l222 -256h-119zM231 305q3 -103 74.5 -169t200.5 -66q130 0 199.5 65t72.5 170q6 206 0 412 q-3 106 -73 171.5t-201 65.5q-127 0 -198.5 -66t-74.5 -169q-6 -205 0 -414z" />
<glyph unicode="&#xf3;" horiz-adv-x="1009" d="M127 299q-6 213 0 426q3 138 100.5 228.5t278.5 90.5q169 0 271.5 -92t105.5 -227q6 -215 0 -426q-5 -139 -105 -229t-272 -90q-181 0 -278.5 89.5t-100.5 229.5zM231 305q3 -103 74.5 -169t200.5 -66q130 0 199.5 65t72.5 170q6 206 0 412q-3 106 -73 171.5t-201 65.5 q-127 0 -198.5 -66t-74.5 -169q-6 -205 0 -414zM414 1178l221 256h164l-267 -256h-118z" />
<glyph unicode="&#xf4;" horiz-adv-x="1009" d="M127 299q-6 213 0 426q3 138 100.5 228.5t278.5 90.5q169 0 271.5 -92t105.5 -227q6 -215 0 -426q-5 -139 -105 -229t-272 -90q-181 0 -278.5 89.5t-100.5 229.5zM231 305q3 -103 74.5 -169t200.5 -66q130 0 199.5 65t72.5 170q6 206 0 412q-3 106 -73 171.5t-201 65.5 q-127 0 -198.5 -66t-74.5 -169q-6 -205 0 -414zM242 1178l200 256h123l201 -256h-111l-151 157l-152 -157h-110z" />
<glyph unicode="&#xf5;" horiz-adv-x="1009" d="M127 299q-6 213 0 426q3 138 100.5 228.5t278.5 90.5q169 0 271.5 -92t105.5 -227q6 -215 0 -426q-5 -139 -105 -229t-272 -90q-181 0 -278.5 89.5t-100.5 229.5zM207 1194q0 58 47 120t117 62q48 0 96.5 -24.5t91 -49t74.5 -24.5t52.5 25.5t25.5 62.5h92 q0 -59 -47 -120.5t-117 -61.5q-48 0 -97 24.5t-91 49t-74 24.5t-52.5 -25.5t-25.5 -62.5h-92zM231 305q3 -103 74.5 -169t200.5 -66q130 0 199.5 65t72.5 170q6 206 0 412q-3 106 -73 171.5t-201 65.5q-127 0 -198.5 -66t-74.5 -169q-6 -205 0 -414z" />
<glyph unicode="&#xf6;" horiz-adv-x="1009" d="M127 299q-6 213 0 426q3 138 100.5 228.5t278.5 90.5q169 0 271.5 -92t105.5 -227q6 -215 0 -426q-5 -139 -105 -229t-272 -90q-181 0 -278.5 89.5t-100.5 229.5zM231 305q3 -103 74.5 -169t200.5 -66q130 0 199.5 65t72.5 170q6 206 0 412q-3 106 -73 171.5t-201 65.5 q-127 0 -198.5 -66t-74.5 -169q-6 -205 0 -414zM268 1208v164h125v-164h-125zM616 1208v164h125v-164h-125z" />
<glyph unicode="&#xf7;" d="M154 528v99h878v-99h-878zM514 160v151h154v-151h-154zM514 844v149h154v-149h-154z" />
<glyph unicode="&#xf8;" horiz-adv-x="1009" d="M127 0l68 104q-65 80 -68 195q-6 213 0 426q3 138 100.5 228.5t278.5 90.5q148 0 244 -71l32 51h103l-72 -111q67 -83 70 -188q6 -215 0 -426q-5 -139 -105 -229t-272 -90q-151 0 -248 65l-29 -45h-102zM231 305q0 -49 25 -104l442 692q-70 61 -194 61q-127 0 -198.5 -66 t-74.5 -169q-6 -205 0 -414zM311 129q72 -59 195 -59q130 0 199.5 65t72.5 170q6 206 0 412q-3 54 -24 104z" />
<glyph unicode="&#xf9;" horiz-adv-x="1024" d="M133 299v725h103v-713q0 -104 51.5 -170.5t161.5 -66.5q45 0 95.5 12.5t90 30.5t73 35.5t52.5 29.5l18 13v829h103v-1024h-95l-8 98q-20 -13 -54 -32t-122.5 -50.5t-157.5 -31.5q-156 0 -233.5 87t-77.5 228zM223 1434h164l221 -256h-119z" />
<glyph unicode="&#xfa;" horiz-adv-x="1024" d="M133 299v725h103v-713q0 -104 51.5 -170.5t161.5 -66.5q45 0 95.5 12.5t90 30.5t73 35.5t52.5 29.5l18 13v829h103v-1024h-95l-8 98q-20 -13 -54 -32t-122.5 -50.5t-157.5 -31.5q-156 0 -233.5 87t-77.5 228zM432 1178l221 256h164l-266 -256h-119z" />
<glyph unicode="&#xfb;" horiz-adv-x="1024" d="M133 299v725h103v-713q0 -104 51.5 -170.5t161.5 -66.5q45 0 95.5 12.5t90 30.5t73 35.5t52.5 29.5l18 13v829h103v-1024h-95l-8 98q-20 -13 -54 -32t-122.5 -50.5t-157.5 -31.5q-156 0 -233.5 87t-77.5 228zM250 1178l201 256h122l201 -256h-110l-152 157l-152 -157 h-110z" />
<glyph unicode="&#xfc;" horiz-adv-x="1024" d="M133 299v725h103v-713q0 -104 51.5 -170.5t161.5 -66.5q45 0 95.5 12.5t90 30.5t73 35.5t52.5 29.5l18 13v829h103v-1024h-95l-8 98q-20 -13 -54 -32t-122.5 -50.5t-157.5 -31.5q-156 0 -233.5 87t-77.5 228zM274 1208v164h125v-164h-125zM623 1208v164h125v-164h-125z " />
<glyph unicode="&#xfd;" horiz-adv-x="933" d="M31 1024h110l312 -887h8l334 887h108l-532 -1393h-107l156 398l-41 16zM410 1178l221 256h164l-267 -256h-118z" />
<glyph unicode="&#xfe;" horiz-adv-x="1017" d="M143 -369v1803h103v-508q7 5 20 13t52 28t77 35.5t89.5 28.5t95.5 13q154 0 231 -85t80 -224q6 -214 0 -428q-2 -68 -23.5 -125.5t-64 -103.5t-112 -72t-159.5 -26q-65 0 -136.5 13t-110.5 27l-39 13v-402h-103zM246 129q11 -7 33 -16.5t96.5 -26t156.5 -16.5 q122 0 186.5 72.5t67.5 174.5q6 205 0 406q-3 104 -53 167.5t-158 63.5q-46 0 -96.5 -13t-90.5 -31t-73 -36.5t-51 -31.5l-18 -13v-700z" />
<glyph unicode="&#xff;" horiz-adv-x="933" d="M31 1024h110l312 -887h8l334 887h108l-532 -1393h-107l156 398l-41 16zM225 1208v164h125v-164h-125zM573 1208v164h125v-164h-125z" />
<glyph unicode="&#x152;" horiz-adv-x="1841" d="M137 434q-6 281 0 565q5 187 148 311t366 124h1067v-101h-682v-538h615v-99h-615v-596h703v-100h-1088q-225 0 -367 123t-147 311zM256 434q3 -145 107.5 -239.5t287.5 -94.5h269v1233h-269q-180 0 -286 -94.5t-109 -239.5q-6 -283 0 -565z" />
<glyph unicode="&#x153;" horiz-adv-x="1581" d="M127 299q-6 213 0 426q3 139 98 229t275 90q110 0 192.5 -41.5t128.5 -113.5q43 72 121.5 113.5t185.5 41.5q161 0 256 -91t95 -228v-246h-602q0 -115 2 -170q5 -104 67 -171.5t187 -67.5q76 0 150.5 10t110.5 20l36 11l14 -84q-13 -5 -38 -13t-107.5 -21t-170.5 -13 q-221 0 -309 149q-46 -70 -127 -109.5t-192 -39.5q-180 0 -275 89.5t-98 229.5zM231 305q3 -104 72 -169.5t197 -65.5q129 0 196 64.5t70 170.5q6 206 0 412q-3 107 -70 172t-198 65q-127 0 -195.5 -65.5t-71.5 -169.5q-6 -205 0 -414zM877 569h499q0 103 -2 146 q-5 100 -70 169.5t-171 69.5q-121 0 -185 -66.5t-69 -172.5z" />
<glyph unicode="&#x178;" horiz-adv-x="1136" d="M31 1434h135l397 -748h8l400 748h135l-479 -865v-569h-117v569zM332 1618v164h125v-164h-125zM680 1618v164h125v-164h-125z" />
<glyph unicode="&#x2c6;" horiz-adv-x="524" d="M0 1178l201 256h123l200 -256h-110l-152 157l-151 -157h-111z" />
<glyph unicode="&#x2dc;" horiz-adv-x="595" d="M0 1194q0 58 47 120t117 62q48 0 96.5 -24.5t91 -49t74.5 -24.5t52.5 25.5t25.5 62.5h92q0 -59 -47 -120.5t-117 -61.5q-48 0 -97 24.5t-91 49t-74 24.5t-52.5 -25.5t-25.5 -62.5h-92z" />
<glyph unicode="&#x2000;" horiz-adv-x="937" />
<glyph unicode="&#x2001;" horiz-adv-x="1874" />
<glyph unicode="&#x2002;" horiz-adv-x="937" />
<glyph unicode="&#x2003;" horiz-adv-x="1874" />
<glyph unicode="&#x2004;" horiz-adv-x="624" />
<glyph unicode="&#x2005;" horiz-adv-x="468" />
<glyph unicode="&#x2006;" horiz-adv-x="312" />
<glyph unicode="&#x2007;" horiz-adv-x="312" />
<glyph unicode="&#x2008;" horiz-adv-x="234" />
<glyph unicode="&#x2009;" horiz-adv-x="374" />
<glyph unicode="&#x200a;" horiz-adv-x="104" />
<glyph unicode="&#x2010;" horiz-adv-x="733" d="M133 555v98h467v-98h-467z" />
<glyph unicode="&#x2011;" horiz-adv-x="733" d="M133 555v98h467v-98h-467z" />
<glyph unicode="&#x2012;" horiz-adv-x="733" d="M133 555v98h467v-98h-467z" />
<glyph unicode="&#x2013;" horiz-adv-x="753" d="M0 555v98h754v-98h-754z" />
<glyph unicode="&#x2014;" horiz-adv-x="1505" d="M0 555v98h1505v-98h-1505z" />
<glyph unicode="&#x2018;" horiz-adv-x="276" d="M41 1100v139q0 60 14.5 104.5t37.5 67t45 33t44 10.5v-55q-32 0 -50.5 -34t-18.5 -77l2 -26h55v-162h-129z" />
<glyph unicode="&#x2019;" horiz-adv-x="276" d="M92 1079v56q32 0 51 33.5t19 76.5l-2 27h-56v162h129v-140q0 -60 -14.5 -104.5t-37.5 -67t-45 -33t-44 -10.5z" />
<glyph unicode="&#x201a;" horiz-adv-x="368" d="M92 -137q32 0 51 33.5t19 76.5l-2 27h-56v162h129v-139q0 -60 -14.5 -105t-37.5 -67.5t-45.5 -33t-43.5 -10.5v56z" />
<glyph unicode="&#x201c;" horiz-adv-x="512" d="M41 1100v139q0 60 14.5 104.5t37.5 67t45 33t44 10.5v-55q-32 0 -50.5 -34t-18.5 -77l2 -26h55v-162h-129zM279 1100v139q0 60 14.5 104.5t37.5 67t45 33t44 10.5v-55q-32 0 -51 -34t-19 -77l2 -26h56v-162h-129z" />
<glyph unicode="&#x201d;" horiz-adv-x="512" d="M92 1079v56q32 0 51 33.5t19 76.5l-2 27h-56v162h129v-140q0 -60 -14.5 -104.5t-37.5 -67t-45 -33t-44 -10.5zM330 1079v56q32 0 50.5 33.5t18.5 76.5l-2 27h-55v162h129v-140q0 -60 -14.5 -104.5t-37.5 -67t-45 -33t-44 -10.5z" />
<glyph unicode="&#x201e;" horiz-adv-x="604" d="M92 -137q32 0 51 33.5t19 76.5l-2 27h-56v162h129v-139q0 -60 -14.5 -105t-37.5 -67.5t-45.5 -33t-43.5 -10.5v56zM330 -137q32 0 50.5 33.5t18.5 76.5l-2 27h-55v162h129v-139q0 -60 -14.5 -105t-37.5 -67.5t-45.5 -33t-43.5 -10.5v56z" />
<glyph unicode="&#x2022;" horiz-adv-x="870" d="M154 737q0 118 81 200.5t199 82.5q117 0 200 -83t83 -200q0 -118 -83 -200t-200 -82q-118 0 -199 81.5t-81 200.5z" />
<glyph unicode="&#x2026;" horiz-adv-x="1357" d="M164 0v162h125v-162h-125zM616 0v162h125v-162h-125zM1069 0v162h125v-162h-125z" />
<glyph unicode="&#x202f;" horiz-adv-x="374" />
<glyph unicode="&#x2039;" horiz-adv-x="645" d="M133 596l246 313h123l-246 -313l246 -315h-123z" />
<glyph unicode="&#x203a;" horiz-adv-x="645" d="M143 281l246 315l-246 313h123l246 -313l-246 -315h-123z" />
<glyph unicode="&#x205f;" horiz-adv-x="468" />
<glyph unicode="&#x20ac;" d="M137 528v93h131v182h-131v92h133q0 79 2 104q2 92 41 175t105 145t162 98.5t206 36.5q51 0 113.5 -7t99.5 -15l37 -7l-6 -102q-133 29 -244 29q-178 0 -283 -103t-108 -250q-2 -25 -2 -104h502v-92h-504v-182h453v-93h-451q0 -12 1 -47t1 -47q2 -71 28 -134t74 -112 t122.5 -77.5t166.5 -28.5q59 0 123 7t99 15l34 7l7 -101q-138 -30 -263 -30q-223 0 -366 132t-148 322q0 12 -1 47t-1 47h-133z" />
<glyph unicode="&#x2122;" horiz-adv-x="1390" d="M123 1354v80h428v-80h-172v-578h-84v578h-172zM676 776v658h100l174 -299l176 299h101v-658h-84v518l-152 -241h-84l-145 241v-518h-86z" />
<glyph unicode="&#x25fc;" horiz-adv-x="1024" d="M0 0v1024h1024v-1024h-1024z" />
<glyph unicode="&#xfb03;" horiz-adv-x="1644" d="M41 934v90h164v164q0 121 67 193.5t191 72.5q30 0 72 -4t69 -8l27 -4l-10 -82q-78 12 -160 12q-154 0 -154 -194v-150h492v164q0 121 67 193.5t191 72.5q30 0 72 -4t69 -8l27 -4l-11 -82q-77 12 -159 12q-154 0 -154 -194v-150h594v-1024h-102v934h-492v-934h-102v934 h-492v-934h-102v934h-164zM1389 1233v201h112v-201h-112z" />
<glyph unicode="&#xfb04;" horiz-adv-x="1636" d="M41 934v90h164v164q0 121 67 193.5t191 72.5q30 0 72 -4t69 -8l27 -4l-10 -82q-78 12 -160 12q-154 0 -154 -194v-150h494v164q0 121 67 193.5t191 72.5q74 0 182.5 -5t180.5 -10l71 -5v-1434h-102v1356q-187 12 -334 12q-154 0 -154 -194v-150h293v-90h-293v-934h-102 v934h-494v-934h-102v934h-164z" />
</font>
</defs>
</svg>
